g floor
v -7.500 0.000 -7.076
v 7.500 0.000 -7.076
v 7.500 0.000 7.076
v -7.500 0.000 7.076
g rooms
v -1.043 0.010 -7.076
v 7.500 0.010 -7.076
v 7.500 0.010 7.076
v -1.043 0.010 7.076
v -7.500 0.010 3.000
v 2.217 0.010 3.000
v 2.217 0.010 7.076
v -7.500 0.010 7.076
v -7.500 0.010 -7.076
v -1.924 0.010 -7.076
v -1.924 0.010 3.620
v -7.500 0.010 3.620
g wall
v 6.226 0.000 4.076
v 6.426 0.000 4.076
v 6.426 0.000 -2.967
v 6.226 0.000 -2.967
v 6.226 2.800 4.076
v 6.426 2.800 4.076
v 6.426 2.800 -2.967
v 6.226 2.800 -2.967
v 6.096 0.000 4.109
v 6.296 0.000 4.109
v 6.296 0.000 -3.000
v 6.096 0.000 -3.000
v 6.096 2.800 4.109
v 6.296 2.800 4.109
v 6.296 2.800 -3.000
v 6.096 2.800 -3.000
v -1.991 0.000 4.761
v -1.791 0.000 4.761
v -1.791 0.000 1.043
v -1.991 0.000 1.043
v -1.991 2.800 4.761
v -1.791 2.800 4.761
v -1.791 2.800 1.043
v -1.991 2.800 1.043
v 6.030 0.000 4.076
v 6.230 0.000 4.076
v 6.230 0.000 -3.000
v 6.030 0.000 -3.000
v 6.030 2.800 4.076
v 6.230 2.800 4.076
v 6.230 2.800 -3.000
v 6.030 2.800 -3.000
v 6.063 0.000 4.109
v 6.263 0.000 4.109
v 6.263 0.000 -3.000
v 6.063 0.000 -3.000
v 6.063 2.800 4.109
v 6.263 2.800 4.109
v 6.263 2.800 -3.000
v 6.063 2.800 -3.000
v -6.065 0.000 -6.328
v -6.065 0.000 -6.128
v -1.109 0.000 -6.128
v -1.109 0.000 -6.328
v -6.065 2.800 -6.328
v -6.065 2.800 -6.128
v -1.109 2.800 -6.128
v -1.109 2.800 -6.328
v 6.193 0.000 4.109
v 6.393 0.000 4.109
v 6.393 0.000 -3.000
v 6.193 0.000 -3.000
v 6.193 2.800 4.109
v 6.393 2.800 4.109
v 6.393 2.800 -3.000
v 6.193 2.800 -3.000
v 6.259 0.000 4.076
v 6.459 0.000 4.076
v 6.459 0.000 -2.935
v 6.259 0.000 -2.935
v 6.259 2.800 4.076
v 6.459 2.800 4.076
v 6.459 2.800 -2.935
v 6.259 2.800 -2.935
v -6.067 0.000 -6.198
v -6.063 0.000 -5.998
v -1.107 0.000 -6.096
v -1.111 0.000 -6.296
v -6.067 2.800 -6.198
v -6.063 2.800 -5.998
v -1.107 2.800 -6.096
v -1.111 2.800 -6.296
v 6.128 0.000 4.109
v 6.328 0.000 4.109
v 6.328 0.000 -3.000
v 6.128 0.000 -3.000
v 6.128 2.800 4.109
v 6.328 2.800 4.109
v 6.328 2.800 -3.000
v 6.128 2.800 -3.000
v 6.161 0.000 4.109
v 6.361 0.000 4.109
v 6.361 0.000 -3.000
v 6.161 0.000 -3.000
v 6.161 2.800 4.109
v 6.361 2.800 4.109
v 6.361 2.800 -3.000
v 6.161 2.800 -3.000
v -1.959 0.000 4.728
v -1.759 0.000 4.728
v -1.759 0.000 1.011
v -1.959 0.000 1.011
v -1.959 2.800 4.728
v -1.759 2.800 4.728
v -1.759 2.800 1.011
v -1.959 2.800 1.011
v -2.024 0.000 -0.163
v -1.824 0.000 -0.163
v -1.824 0.000 -2.739
v -2.024 0.000 -2.739
v -2.024 2.800 -0.163
v -1.824 2.800 -0.163
v -1.824 2.800 -2.739
v -2.024 2.800 -2.739
v -6.033 0.000 -6.393
v -6.033 0.000 -6.193
v -1.109 0.000 -6.193
v -1.109 0.000 -6.393
v -6.033 2.800 -6.393
v -6.033 2.800 -6.193
v -1.109 2.800 -6.193
v -1.109 2.800 -6.393
v -6.100 0.000 -3.850
v -5.900 0.000 -3.845
v -5.835 0.000 -6.323
v -6.035 0.000 -6.329
v -6.100 2.800 -3.850
v -5.900 2.800 -3.845
v -5.835 2.800 -6.323
v -6.035 2.800 -6.329
v -1.991 0.000 -0.133
v -1.791 0.000 -0.128
v -1.726 0.000 -2.802
v -1.926 0.000 -2.807
v -1.991 2.800 -0.133
v -1.791 2.800 -0.128
v -1.726 2.800 -2.802
v -1.926 2.800 -2.807
v 2.443 0.000 5.380
v 2.643 0.000 5.380
v 2.643 0.000 1.402
v 2.443 0.000 1.402
v 2.443 2.800 5.380
v 2.643 2.800 5.380
v 2.643 2.800 1.402
v 2.443 2.800 1.402
v -1.372 0.000 -2.710
v -1.172 0.000 -2.703
v -1.097 0.000 -4.777
v -1.297 0.000 -4.785
v -1.372 2.800 -2.710
v -1.172 2.800 -2.703
v -1.097 2.800 -4.777
v -1.297 2.800 -4.785
v -1.244 0.000 -6.251
v -1.044 0.000 -6.244
v -1.041 0.000 -6.322
v -1.241 0.000 -6.330
v -1.244 2.800 -6.251
v -1.044 2.800 -6.244
v -1.041 2.800 -6.322
v -1.241 2.800 -6.330
v -2.154 0.000 4.757
v -1.954 0.000 4.764
v -1.824 0.000 1.080
v -2.024 0.000 1.073
v -2.154 2.800 4.757
v -1.954 2.800 4.764
v -1.824 2.800 1.080
v -2.024 2.800 1.073
v -6.047 0.000 -4.015
v -5.847 0.000 -4.006
v -5.737 0.000 -6.321
v -5.937 0.000 -6.331
v -6.047 2.800 -4.015
v -5.847 2.800 -4.006
v -5.737 2.800 -6.321
v -5.937 2.800 -6.331
v 1.926 0.000 -4.112
v 1.726 0.000 -4.106
v 1.824 0.000 -0.877
v 2.024 0.000 -0.883
v 1.926 2.800 -4.112
v 1.726 2.800 -4.106
v 1.824 2.800 -0.877
v 2.024 2.800 -0.883
v -6.065 0.000 -6.361
v -6.065 0.000 -6.161
v -1.076 0.000 -6.161
v -1.076 0.000 -6.361
v -6.065 2.800 -6.361
v -6.065 2.800 -6.161
v -1.076 2.800 -6.161
v -1.076 2.800 -6.361
v -6.000 0.000 -6.426
v -6.000 0.000 -6.226
v -1.174 0.000 -6.226
v -1.174 0.000 -6.426
v -6.000 2.800 -6.426
v -6.000 2.800 -6.226
v -1.174 2.800 -6.226
v -1.174 2.800 -6.426
v 1.891 0.000 0.193
v 1.891 0.000 0.393
v 6.098 0.000 0.393
v 6.098 0.000 0.193
v 1.891 2.800 0.193
v 1.891 2.800 0.393
v 6.098 2.800 0.393
v 6.098 2.800 0.193
v 0.719 0.000 -3.461
v 0.520 0.000 -3.452
v 0.617 0.000 -1.300
v 0.817 0.000 -1.309
v 0.719 2.800 -3.461
v 0.520 2.800 -3.452
v 0.617 2.800 -1.300
v 0.817 2.800 -1.309
v 1.826 0.000 0.128
v 1.826 0.000 0.328
v 6.098 0.000 0.328
v 6.098 0.000 0.128
v 1.826 2.800 0.128
v 1.826 2.800 0.328
v 6.098 2.800 0.328
v 6.098 2.800 0.128
v -6.426 0.000 -2.315
v -6.226 0.000 -2.315
v -6.226 0.000 -3.880
v -6.426 0.000 -3.880
v -6.426 2.800 -2.315
v -6.226 2.800 -2.315
v -6.226 2.800 -3.880
v -6.426 2.800 -3.880
v -2.185 0.000 1.596
v -2.185 0.000 1.796
v 1.435 0.000 1.796
v 1.435 0.000 1.596
v -2.185 2.800 1.596
v -2.185 2.800 1.796
v 1.435 2.800 1.796
v 1.435 2.800 1.596
v -2.185 0.000 1.628
v -2.185 0.000 1.828
v 1.435 0.000 1.828
v 1.435 0.000 1.628
v -2.185 2.800 1.628
v -2.185 2.800 1.828
v 1.435 2.800 1.828
v 1.435 2.800 1.628
v -6.184 0.000 -3.416
v -6.384 0.000 -3.411
v -6.361 0.000 -2.313
v -6.161 0.000 -2.317
v -6.184 2.800 -3.416
v -6.384 2.800 -3.411
v -6.361 2.800 -2.313
v -6.161 2.800 -2.317
v -6.149 0.000 -4.020
v -5.949 0.000 -4.012
v -5.867 0.000 -6.192
v -6.067 0.000 -6.199
v -6.149 2.800 -4.020
v -5.949 2.800 -4.012
v -5.867 2.800 -6.192
v -6.067 2.800 -6.199
v 2.509 0.000 5.315
v 2.709 0.000 5.315
v 2.709 0.000 1.402
v 2.509 0.000 1.402
v 2.509 2.800 5.315
v 2.709 2.800 5.315
v 2.709 2.800 1.402
v 2.509 2.800 1.402
v 1.859 0.000 0.161
v 1.859 0.000 0.361
v 6.098 0.000 0.361
v 6.098 0.000 0.161
v 1.859 2.800 0.161
v 1.859 2.800 0.361
v 6.098 2.800 0.361
v 6.098 2.800 0.161
v -6.263 0.000 -2.348
v -6.063 0.000 -2.348
v -6.063 0.000 -3.417
v -6.263 0.000 -3.417
v -6.263 2.800 -2.348
v -6.063 2.800 -2.348
v -6.063 2.800 -3.417
v -6.263 2.800 -3.417
v -6.393 0.000 1.924
v -6.193 0.000 1.924
v -6.193 0.000 0.424
v -6.393 0.000 0.424
v -6.393 2.800 1.924
v -6.193 2.800 1.924
v -6.193 2.800 0.424
v -6.393 2.800 0.424
v 2.476 0.000 5.348
v 2.676 0.000 5.348
v 2.676 0.000 1.402
v 2.476 0.000 1.402
v 2.476 2.800 5.348
v 2.676 2.800 5.348
v 2.676 2.800 1.402
v 2.476 2.800 1.402
v -6.459 0.000 1.924
v -6.259 0.000 1.924
v -6.259 0.000 0.424
v -6.459 0.000 0.424
v -6.459 2.800 1.924
v -6.259 2.800 1.924
v -6.259 2.800 0.424
v -6.459 2.800 0.424
v 0.752 0.000 -4.112
v 0.552 0.000 -4.106
v 0.617 0.000 -1.953
v 0.817 0.000 -1.960
v 0.752 2.800 -4.112
v 0.552 2.800 -4.106
v 0.617 2.800 -1.953
v 0.817 2.800 -1.960
v -1.306 0.000 -2.742
v -1.107 0.000 -2.736
v -1.045 0.000 -4.776
v -1.245 0.000 -4.782
v -1.306 2.800 -2.742
v -1.107 2.800 -2.736
v -1.045 2.800 -4.776
v -1.245 2.800 -4.782
v -6.033 0.000 -6.296
v -6.033 0.000 -6.096
v -1.402 0.000 -6.096
v -1.402 0.000 -6.296
v -6.033 2.800 -6.296
v -6.033 2.800 -6.096
v -1.402 2.800 -6.096
v -1.402 2.800 -6.296
v -3.882 0.000 -6.198
v -3.879 0.000 -5.998
v -1.108 0.000 -6.030
v -1.110 0.000 -6.230
v -3.882 2.800 -6.198
v -3.879 2.800 -5.998
v -1.108 2.800 -6.030
v -1.110 2.800 -6.230
v -6.013 0.000 -4.013
v -5.814 0.000 -4.003
v -5.704 0.000 -6.158
v -5.904 0.000 -6.168
v -6.013 2.800 -4.013
v -5.814 2.800 -4.003
v -5.704 2.800 -6.158
v -5.904 2.800 -6.168
v -1.987 0.000 1.755
v -2.187 0.000 1.766
v -2.024 0.000 4.766
v -1.824 0.000 4.755
v -1.987 2.800 1.755
v -2.187 2.800 1.766
v -2.024 2.800 4.766
v -1.824 2.800 4.755
v -5.969 0.000 -3.558
v -5.770 0.000 -3.550
v -5.704 0.000 -5.148
v -5.904 0.000 -5.156
v -5.969 2.800 -3.558
v -5.770 2.800 -3.550
v -5.704 2.800 -5.148
v -5.904 2.800 -5.156
v -1.859 0.000 -0.296
v -1.859 0.000 -0.096
v 0.685 0.000 -0.096
v 0.685 0.000 -0.296
v -1.859 2.800 -0.296
v -1.859 2.800 -0.096
v 0.685 2.800 -0.096
v 0.685 2.800 -0.296
v -2.217 0.000 1.661
v -2.217 0.000 1.861
v 1.435 0.000 1.861
v 1.435 0.000 1.661
v -2.217 2.800 1.661
v -2.217 2.800 1.861
v 1.435 2.800 1.861
v 1.435 2.800 1.661
v 0.489 0.000 -4.143
v 0.489 0.000 -3.943
v 2.250 0.000 -3.943
v 2.250 0.000 -4.143
v 0.489 2.800 -4.143
v 0.489 2.800 -3.943
v 2.250 2.800 -3.943
v 2.250 2.800 -4.143
v 0.874 0.000 5.378
v 0.887 0.000 5.578
v 2.779 0.000 5.448
v 2.765 0.000 5.248
v 0.874 2.800 5.378
v 0.887 2.800 5.578
v 2.779 2.800 5.448
v 2.765 2.800 5.248
v 0.524 0.000 -4.209
v 0.520 0.000 -4.009
v 2.248 0.000 -3.976
v 2.252 0.000 -4.176
v 0.524 2.800 -4.209
v 0.520 2.800 -4.009
v 2.248 2.800 -3.976
v 2.252 2.800 -4.176
v -0.994 0.000 -4.781
v -1.194 0.000 -4.769
v -1.143 0.000 -3.875
v -0.944 0.000 -3.886
v -0.994 2.800 -4.781
v -1.194 2.800 -4.769
v -1.143 2.800 -3.875
v -0.944 2.800 -3.886
v -1.339 0.000 -4.341
v -1.139 0.000 -4.333
v -1.123 0.000 -4.778
v -1.323 0.000 -4.786
v -1.339 2.800 -4.341
v -1.139 2.800 -4.333
v -1.123 2.800 -4.778
v -1.323 2.800 -4.786
v -1.860 0.000 -0.230
v -1.857 0.000 -0.030
v 0.686 0.000 -0.063
v 0.684 0.000 -0.263
v -1.860 2.800 -0.230
v -1.857 2.800 -0.030
v 0.686 2.800 -0.063
v 0.684 2.800 -0.263
v -2.187 0.000 4.072
v -1.987 0.000 4.081
v -1.889 0.000 1.896
v -2.089 0.000 1.887
v -2.187 2.800 4.072
v -1.987 2.800 4.081
v -1.889 2.800 1.896
v -2.089 2.800 1.887
v 1.003 0.000 5.313
v 1.018 0.000 5.513
v 2.779 0.000 5.382
v 2.764 0.000 5.183
v 1.003 2.800 5.313
v 1.018 2.800 5.513
v 2.779 2.800 5.382
v 2.764 2.800 5.183
v 0.552 0.000 -1.898
v 0.752 0.000 -1.885
v 0.850 0.000 -3.450
v 0.650 0.000 -3.463
v 0.552 2.800 -1.898
v 0.752 2.800 -1.885
v 0.850 2.800 -3.450
v 0.650 2.800 -3.463
v -2.057 0.000 3.357
v -1.857 0.000 3.361
v -1.824 0.000 1.796
v -2.024 0.000 1.791
v -2.057 2.800 3.357
v -1.857 2.800 3.361
v -1.824 2.800 1.796
v -2.024 2.800 1.791
v 0.968 0.000 5.444
v 0.989 0.000 5.643
v 2.521 0.000 5.480
v 2.500 0.000 5.281
v 0.968 2.800 5.444
v 0.989 2.800 5.643
v 2.521 2.800 5.480
v 2.500 2.800 5.281
v -0.848 0.000 -0.230
v -0.848 0.000 -0.030
v 0.652 0.000 -0.030
v 0.652 0.000 -0.230
v -0.848 2.800 -0.230
v -0.848 2.800 -0.030
v 0.652 2.800 -0.030
v 0.652 2.800 -0.230
v -5.867 0.000 -6.230
v -5.872 0.000 -6.030
v -4.372 0.000 -5.998
v -4.367 0.000 -6.198
v -5.867 2.800 -6.230
v -5.872 2.800 -6.030
v -4.372 2.800 -5.998
v -4.367 2.800 -6.198
v -5.770 0.000 -5.354
v -5.969 0.000 -5.341
v -5.872 0.000 -3.841
v -5.672 0.000 -3.854
v -5.770 2.800 -5.354
v -5.969 2.800 -5.341
v -5.872 2.800 -3.841
v -5.672 2.800 -3.854
v -5.902 0.000 -6.263
v -5.902 0.000 -6.063
v -3.293 0.000 -6.063
v -3.293 0.000 -6.263
v -5.902 2.800 -6.263
v -5.902 2.800 -6.063
v -3.293 2.800 -6.063
v -3.293 2.800 -6.263
g door_lintel
v -1.297 2.000 -4.785
v -1.097 2.000 -4.777
v -1.044 2.000 -6.244
v -1.244 2.000 -6.251
v -1.297 2.800 -4.785
v -1.097 2.800 -4.777
v -1.044 2.800 -6.244
v -1.244 2.800 -6.251
v -6.067 2.000 -3.592
v -5.868 2.000 -3.582
v -5.847 2.000 -4.006
v -6.047 2.000 -4.015
v -6.067 2.800 -3.592
v -5.868 2.800 -3.582
v -5.847 2.800 -4.006
v -6.047 2.800 -4.015
v -6.193 2.000 -3.883
v -6.393 2.000 -3.878
v -6.384 2.000 -3.411
v -6.184 2.000 -3.416
v -6.193 2.800 -3.883
v -6.393 2.800 -3.878
v -6.384 2.800 -3.411
v -6.184 2.800 -3.416
v -6.165 2.000 -3.591
v -5.965 2.000 -3.583
v -5.949 2.000 -4.012
v -6.149 2.000 -4.020
v -6.165 2.800 -3.591
v -5.965 2.800 -3.583
v -5.949 2.800 -4.012
v -6.149 2.800 -4.020
v -6.263 2.000 -3.417
v -6.063 2.000 -3.417
v -6.063 2.000 -3.880
v -6.263 2.000 -3.880
v -6.263 2.800 -3.417
v -6.063 2.800 -3.417
v -6.063 2.800 -3.880
v -6.263 2.800 -3.880
v -1.245 2.000 -4.782
v -1.045 2.000 -4.776
v -1.009 2.000 -5.997
v -1.209 2.000 -6.003
v -1.245 2.800 -4.782
v -1.045 2.800 -4.776
v -1.009 2.800 -5.997
v -1.209 2.800 -6.003
v -6.035 2.000 -3.592
v -5.835 2.000 -3.582
v -5.814 2.000 -4.003
v -6.013 2.000 -4.013
v -6.035 2.800 -3.592
v -5.835 2.800 -3.582
v -5.814 2.800 -4.003
v -6.013 2.800 -4.013
v -1.041 2.000 -5.614
v -1.241 2.000 -5.603
v -1.194 2.000 -4.769
v -0.994 2.000 -4.781
v -1.041 2.800 -5.614
v -1.241 2.800 -5.603
v -1.194 2.800 -4.769
v -0.994 2.800 -4.781
v -1.323 2.000 -4.786
v -1.123 2.000 -4.778
v -1.074 2.000 -6.159
v -1.274 2.000 -6.167
v -1.323 2.800 -4.786
v -1.123 2.800 -4.778
v -1.074 2.800 -6.159
v -1.274 2.800 -6.167
f 1 2 3 4
f 5 6 7 8
f 9 10 11 12
f 13 14 15 16
f 16 19 18 17
f 20 21 22 23
f 16 17 21 20
f 17 18 22 21
f 18 19 23 22
f 19 16 20 23
f 24 27 26 25
f 28 29 30 31
f 24 25 29 28
f 25 26 30 29
f 26 27 31 30
f 27 24 28 31
f 32 35 34 33
f 36 37 38 39
f 32 33 37 36
f 33 34 38 37
f 34 35 39 38
f 35 32 36 39
f 40 43 42 41
f 44 45 46 47
f 40 41 45 44
f 41 42 46 45
f 42 43 47 46
f 43 40 44 47
f 48 51 50 49
f 52 53 54 55
f 48 49 53 52
f 49 50 54 53
f 50 51 55 54
f 51 48 52 55
f 56 59 58 57
f 60 61 62 63
f 56 57 61 60
f 57 58 62 61
f 58 59 63 62
f 59 56 60 63
f 64 67 66 65
f 68 69 70 71
f 64 65 69 68
f 65 66 70 69
f 66 67 71 70
f 67 64 68 71
f 72 75 74 73
f 76 77 78 79
f 72 73 77 76
f 73 74 78 77
f 74 75 79 78
f 75 72 76 79
f 80 83 82 81
f 84 85 86 87
f 80 81 85 84
f 81 82 86 85
f 82 83 87 86
f 83 80 84 87
f 88 91 90 89
f 92 93 94 95
f 88 89 93 92
f 89 90 94 93
f 90 91 95 94
f 91 88 92 95
f 96 99 98 97
f 100 101 102 103
f 96 97 101 100
f 97 98 102 101
f 98 99 103 102
f 99 96 100 103
f 104 107 106 105
f 108 109 110 111
f 104 105 109 108
f 105 106 110 109
f 106 107 111 110
f 107 104 108 111
f 112 115 114 113
f 116 117 118 119
f 112 113 117 116
f 113 114 118 117
f 114 115 119 118
f 115 112 116 119
f 120 123 122 121
f 124 125 126 127
f 120 121 125 124
f 121 122 126 125
f 122 123 127 126
f 123 120 124 127
f 128 131 130 129
f 132 133 134 135
f 128 129 133 132
f 129 130 134 133
f 130 131 135 134
f 131 128 132 135
f 136 139 138 137
f 140 141 142 143
f 136 137 141 140
f 137 138 142 141
f 138 139 143 142
f 139 136 140 143
f 144 147 146 145
f 148 149 150 151
f 144 145 149 148
f 145 146 150 149
f 146 147 151 150
f 147 144 148 151
f 152 155 154 153
f 156 157 158 159
f 152 153 157 156
f 153 154 158 157
f 154 155 159 158
f 155 152 156 159
f 160 163 162 161
f 164 165 166 167
f 160 161 165 164
f 161 162 166 165
f 162 163 167 166
f 163 160 164 167
f 168 171 170 169
f 172 173 174 175
f 168 169 173 172
f 169 170 174 173
f 170 171 175 174
f 171 168 172 175
f 176 179 178 177
f 180 181 182 183
f 176 177 181 180
f 177 178 182 181
f 178 179 183 182
f 179 176 180 183
f 184 187 186 185
f 188 189 190 191
f 184 185 189 188
f 185 186 190 189
f 186 187 191 190
f 187 184 188 191
f 192 195 194 193
f 196 197 198 199
f 192 193 197 196
f 193 194 198 197
f 194 195 199 198
f 195 192 196 199
f 200 203 202 201
f 204 205 206 207
f 200 201 205 204
f 201 202 206 205
f 202 203 207 206
f 203 200 204 207
f 208 211 210 209
f 212 213 214 215
f 208 209 213 212
f 209 210 214 213
f 210 211 215 214
f 211 208 212 215
f 216 219 218 217
f 220 221 222 223
f 216 217 221 220
f 217 218 222 221
f 218 219 223 222
f 219 216 220 223
f 224 227 226 225
f 228 229 230 231
f 224 225 229 228
f 225 226 230 229
f 226 227 231 230
f 227 224 228 231
f 232 235 234 233
f 236 237 238 239
f 232 233 237 236
f 233 234 238 237
f 234 235 239 238
f 235 232 236 239
f 240 243 242 241
f 244 245 246 247
f 240 241 245 244
f 241 242 246 245
f 242 243 247 246
f 243 240 244 247
f 248 251 250 249
f 252 253 254 255
f 248 249 253 252
f 249 250 254 253
f 250 251 255 254
f 251 248 252 255
f 256 259 258 257
f 260 261 262 263
f 256 257 261 260
f 257 258 262 261
f 258 259 263 262
f 259 256 260 263
f 264 267 266 265
f 268 269 270 271
f 264 265 269 268
f 265 266 270 269
f 266 267 271 270
f 267 264 268 271
f 272 275 274 273
f 276 277 278 279
f 272 273 277 276
f 273 274 278 277
f 274 275 279 278
f 275 272 276 279
f 280 283 282 281
f 284 285 286 287
f 280 281 285 284
f 281 282 286 285
f 282 283 287 286
f 283 280 284 287
f 288 291 290 289
f 292 293 294 295
f 288 289 293 292
f 289 290 294 293
f 290 291 295 294
f 291 288 292 295
f 296 299 298 297
f 300 301 302 303
f 296 297 301 300
f 297 298 302 301
f 298 299 303 302
f 299 296 300 303
f 304 307 306 305
f 308 309 310 311
f 304 305 309 308
f 305 306 310 309
f 306 307 311 310
f 307 304 308 311
f 312 315 314 313
f 316 317 318 319
f 312 313 317 316
f 313 314 318 317
f 314 315 319 318
f 315 312 316 319
f 320 323 322 321
f 324 325 326 327
f 320 321 325 324
f 321 322 326 325
f 322 323 327 326
f 323 320 324 327
f 328 331 330 329
f 332 333 334 335
f 328 329 333 332
f 329 330 334 333
f 330 331 335 334
f 331 328 332 335
f 336 339 338 337
f 340 341 342 343
f 336 337 341 340
f 337 338 342 341
f 338 339 343 342
f 339 336 340 343
f 344 347 346 345
f 348 349 350 351
f 344 345 349 348
f 345 346 350 349
f 346 347 351 350
f 347 344 348 351
f 352 355 354 353
f 356 357 358 359
f 352 353 357 356
f 353 354 358 357
f 354 355 359 358
f 355 352 356 359
f 360 363 362 361
f 364 365 366 367
f 360 361 365 364
f 361 362 366 365
f 362 363 367 366
f 363 360 364 367
f 368 371 370 369
f 372 373 374 375
f 368 369 373 372
f 369 370 374 373
f 370 371 375 374
f 371 368 372 375
f 376 379 378 377
f 380 381 382 383
f 376 377 381 380
f 377 378 382 381
f 378 379 383 382
f 379 376 380 383
f 384 387 386 385
f 388 389 390 391
f 384 385 389 388
f 385 386 390 389
f 386 387 391 390
f 387 384 388 391
f 392 395 394 393
f 396 397 398 399
f 392 393 397 396
f 393 394 398 397
f 394 395 399 398
f 395 392 396 399
f 400 403 402 401
f 404 405 406 407
f 400 401 405 404
f 401 402 406 405
f 402 403 407 406
f 403 400 404 407
f 408 411 410 409
f 412 413 414 415
f 408 409 413 412
f 409 410 414 413
f 410 411 415 414
f 411 408 412 415
f 416 419 418 417
f 420 421 422 423
f 416 417 421 420
f 417 418 422 421
f 418 419 423 422
f 419 416 420 423
f 424 427 426 425
f 428 429 430 431
f 424 425 429 428
f 425 426 430 429
f 426 427 431 430
f 427 424 428 431
f 432 435 434 433
f 436 437 438 439
f 432 433 437 436
f 433 434 438 437
f 434 435 439 438
f 435 432 436 439
f 440 443 442 441
f 444 445 446 447
f 440 441 445 444
f 441 442 446 445
f 442 443 447 446
f 443 440 444 447
f 448 451 450 449
f 452 453 454 455
f 448 449 453 452
f 449 450 454 453
f 450 451 455 454
f 451 448 452 455
f 456 459 458 457
f 460 461 462 463
f 456 457 461 460
f 457 458 462 461
f 458 459 463 462
f 459 456 460 463
f 464 467 466 465
f 468 469 470 471
f 464 465 469 468
f 465 466 470 469
f 466 467 471 470
f 467 464 468 471
f 472 475 474 473
f 476 477 478 479
f 472 473 477 476
f 473 474 478 477
f 474 475 479 478
f 475 472 476 479
f 480 483 482 481
f 484 485 486 487
f 480 481 485 484
f 481 482 486 485
f 482 483 487 486
f 483 480 484 487
f 488 491 490 489
f 492 493 494 495
f 488 489 493 492
f 489 490 494 493
f 490 491 495 494
f 491 488 492 495
f 496 499 498 497
f 500 501 502 503
f 496 497 501 500
f 497 498 502 501
f 498 499 503 502
f 499 496 500 503
f 504 507 506 505
f 508 509 510 511
f 504 505 509 508
f 505 506 510 509
f 506 507 511 510
f 507 504 508 511
f 512 515 514 513
f 516 517 518 519
f 512 513 517 516
f 513 514 518 517
f 514 515 519 518
f 515 512 516 519
f 520 523 522 521
f 524 525 526 527
f 520 521 525 524
f 521 522 526 525
f 522 523 527 526
f 523 520 524 527
f 528 531 530 529
f 532 533 534 535
f 528 529 533 532
f 529 530 534 533
f 530 531 535 534
f 531 528 532 535
f 536 539 538 537
f 540 541 542 543
f 536 537 541 540
f 537 538 542 541
f 538 539 543 542
f 539 536 540 543
f 544 547 546 545
f 548 549 550 551
f 544 545 549 548
f 545 546 550 549
f 546 547 551 550
f 547 544 548 551
f 552 555 554 553
f 556 557 558 559
f 552 553 557 556
f 553 554 558 557
f 554 555 559 558
f 555 552 556 559
f 560 563 562 561
f 564 565 566 567
f 560 561 565 564
f 561 562 566 565
f 562 563 567 566
f 563 560 564 567
f 568 571 570 569
f 572 573 574 575
f 568 569 573 572
f 569 570 574 573
f 570 571 575 574
f 571 568 572 575
f 576 579 578 577
f 580 581 582 583
f 576 577 581 580
f 577 578 582 581
f 578 579 583 582
f 579 576 580 583
